<svg xmlns="http://www.w3.org/2000/svg" xml:space="preserve" id="Layer_1" x="0" y="0" style="enable-background:new 0 0 453.5 45" version="1.0" viewBox="0 0 453.5 45"><style>.st0{fill:#fff}</style><g id="Layer_2_00000139272231302157035370000013309139902455626921_"><g id="Layer_1-2"><path d="M30.1.4v27.3L9.1.4H0v44.3h9.7V16.5l21.7 28.2h8.4V.4zM47.7.4h9.9v44.3h-9.9zM93.5.4v17.8H75.3V.4h-9.9v44.3h9.9v-17h18.2v17h9.8V.4zM133.6 18.2h-12.5v-9h12.5c2.1.1 5.1.9 5.1 4.5s-3 4.5-5.1 4.5m5 7.9c5.6-1.2 9.8-5.5 9.8-12.7 0-8-5.6-12.8-12.5-13h-24.7v44.3h9.9v-17h7.3l10.5 17h11.3l-11.6-18.6z" class="st0"/><path d="M164.8.4h3.9v44.4h-3.9z" style="fill:#ea5d4e"/><path d="M198.5.5v17.3h-1.6c-.2 0-.4 0-.6-.1-.2-.1-.4-.3-.5-.4l-9-11.5c0 .5.1 1 .1 1.5v10.6H184V.5h2.1c.1 0 .2 0 .3.1.1 0 .2.1.2.2l.2.3 9.1 11.6-.1-.8V.5h2.7zM201.3 7.2c1.4-1.3 3.2-2 5.1-1.9.7 0 1.3.1 1.9.3.5.2 1 .6 1.4 1 .4.4.7.9.9 1.5.2.6.3 1.2.3 1.9v7.8h-1.3c-.2 0-.4 0-.6-.1-.2-.1-.3-.3-.4-.5l-.3-.9c-.3.3-.6.5-.9.7-.3.2-.6.4-.9.5-.3.2-.7.3-1 .3-.4.1-.8.1-1.2.1-.5 0-1-.1-1.4-.2-.4-.1-.8-.3-1.1-.6-.3-.3-.6-.6-.7-1-.2-.5-.3-1-.3-1.4 0-.3.1-.6.2-.9.1-.3.3-.6.5-.9.3-.3.6-.6.9-.8.4-.3.9-.5 1.4-.6.6-.2 1.2-.3 1.9-.4.8-.1 1.7-.2 2.5-.2V10c.1-.7-.1-1.3-.5-1.8-.4-.4-1-.6-1.6-.6-.4 0-.8 0-1.2.2-.3.1-.6.2-.8.4l-.7.4c-.2.1-.4.2-.6.2-.2 0-.4-.1-.5-.2-.1-.1-.3-.2-.3-.4l-.7-1zm6.8 5.3c-.7 0-1.4.1-2.2.2-.5.1-1 .2-1.4.4-.3.1-.6.3-.8.6-.1.2-.2.5-.2.7 0 .4.1.8.5 1.1.4.2.8.4 1.2.3.5 0 1.1-.1 1.6-.3.5-.3.9-.6 1.3-1v-2zM234.4 5.3c.8 0 1.7.1 2.5.4 1.5.6 2.6 1.7 3.1 3.2.3.8.4 1.7.4 2.6 0 .9-.1 1.8-.4 2.6-.3.7-.7 1.4-1.2 2-.5.6-1.2 1-1.9 1.3-.8.3-1.6.5-2.5.4-.9 0-1.7-.1-2.5-.4-.7-.3-1.3-.7-1.9-1.3-.5-.6-1-1.3-1.2-2-.3-.8-.5-1.7-.4-2.6 0-.9.1-1.8.4-2.6.3-.8.7-1.4 1.3-2 .5-.6 1.2-1 1.9-1.3.7-.2 1.5-.3 2.4-.3zm0 10.4c.9.1 1.7-.3 2.3-1 .5-.9.8-1.9.7-3 .1-1.1-.2-2.1-.7-3-.5-.7-1.4-1.1-2.3-1-.9-.1-1.8.3-2.3 1.1-.6.9-.8 1.9-.8 3-.1 1.1.2 2.1.8 3 .5.6 1.4 1 2.3.9zM245.4 7c.2-.2.5-.5.8-.7.3-.2.6-.4.9-.5.3-.1.7-.3 1-.3.4-.1.8-.1 1.1-.1.6 0 1.2.1 1.8.3.5.2.9.6 1.3 1s.6.9.8 1.5c.2.6.3 1.2.3 1.9v7.8h-3V10c0-.6-.1-1.2-.5-1.8-.4-.4-1-.7-1.6-.6-.5 0-1 .1-1.4.3-.5.3-.9.6-1.3 1v8.9h-3V5.5h1.8c.4 0 .7.2.8.5l.2 1zM255.9 7.2c1.4-1.3 3.2-2 5.1-1.9.7 0 1.3.1 1.9.3.5.2 1 .6 1.4 1 .4.4.7.9.9 1.5.2.6.3 1.3.3 1.9v7.7h-1.4c-.2 0-.4 0-.6-.1-.2-.1-.3-.3-.4-.5l-.3-.9c-.3.3-.6.5-.9.7-.3.2-.6.4-.9.5-.3.2-.7.3-1 .3-.4.1-.8.1-1.2.1-.5 0-1-.1-1.4-.2-.4-.1-.8-.3-1.1-.6-.3-.3-.6-.6-.7-1-.2-.5-.3-1-.3-1.4 0-.3.1-.6.2-.9.1-.3.3-.6.5-.9.3-.3.6-.6.9-.8.4-.3.9-.5 1.4-.6.6-.2 1.3-.4 1.9-.4.8-.1 1.7-.2 2.5-.2V10c.1-.7-.1-1.3-.5-1.8-.4-.4-1-.6-1.5-.6-.4 0-.8 0-1.2.2-.3.1-.6.2-.8.4l-.7.4c-.2.1-.4.2-.6.2-.2 0-.4-.1-.5-.2-.1-.1-.3-.2-.3-.4l-.7-1zm6.8 5.3c-.7 0-1.4.1-2.2.2-.5.1-1 .2-1.4.4-.3.1-.6.3-.8.6-.1.2-.2.5-.2.7 0 .4.1.8.5 1.1.4.2.8.4 1.2.3.5 0 1.1-.1 1.6-.3.5-.3.9-.6 1.3-1v-2zM271.3 0v17.8h-3V0h3zM283.7 17.8h-3.2V.5h3.2v17.3zM289.7 7c.2-.2.5-.5.8-.7.3-.2.6-.4.9-.5.3-.1.7-.3 1-.3.4-.1.8-.1 1.1-.1.6 0 1.2.1 1.8.3.5.2.9.6 1.3 1s.6.9.8 1.5c.2.6.3 1.2.3 1.9v7.8h-3V10c0-.6-.1-1.2-.5-1.8-.4-.4-1-.7-1.6-.6-.5 0-1 .1-1.4.3-.5.3-.9.6-1.3 1v8.9h-3V5.5h1.8c.3 0 .7.2.8.5l.2 1zM307.9 7.9c-.1.1-.1.2-.2.3-.1.1-.2.1-.3.1-.2 0-.3 0-.5-.1l-.6-.3c-.2-.1-.5-.2-.7-.3-.3-.1-.7-.1-1-.1-.5 0-1 .1-1.4.4-.3.2-.5.6-.5 1 0 .2.1.5.3.7.2.2.4.4.7.5.3.1.7.3 1 .4.4.1.7.2 1.1.4.4.1.7.3 1.1.4.4.2.7.4 1 .6.3.3.5.6.7.9.2.4.3.8.3 1.3 0 .6-.1 1.1-.3 1.6-.2.5-.5.9-.9 1.3-.5.4-1 .7-1.5.9-.7.2-1.4.3-2.1.3-.4 0-.8 0-1.2-.1l-1.2-.3c-.3-.1-.7-.3-1-.5-.3-.2-.6-.4-.8-.6l.7-1.1.3-.3c.1-.1.3-.1.5-.1s.4.1.5.2l.6.3c.2.1.5.3.8.3.4.1.7.2 1.1.2.3 0 .6 0 .9-.1l.6-.3c.2-.1.3-.3.4-.5.1-.2.1-.4.1-.6 0-.3-.1-.5-.2-.7-.2-.2-.4-.4-.7-.5-.3-.1-.7-.3-1-.4l-1.1-.4c-.4-.1-.7-.3-1.1-.4-.4-.2-.7-.4-1-.7-.3-.3-.5-.6-.7-1-.2-.4-.3-.9-.2-1.4 0-.5.1-1 .3-1.4.2-.5.5-.9.9-1.2.4-.4.9-.6 1.4-.8.6-.2 1.3-.3 2-.3.8 0 1.6.1 2.3.4.6.2 1.2.6 1.7 1.1l-1.1.9zM330.4 18c-.9.1-1.8-.3-2.5-.9-.6-.7-.9-1.6-.9-2.5V7.7h-1.3c-.1 0-.3-.1-.4-.2-.1-.1-.2-.3-.2-.5V5.9l2-.3.6-3.3c0-.1.1-.3.2-.4.1-.1.3-.1.4-.1h1.5v3.9h3.3v2.1H330v6.7c0 .3.1.6.3.9.2.2.5.3.8.3.2 0 .3 0 .5-.1l.3-.1.2-.1c.1 0 .1-.1.2-.1s.1 0 .2.1l.2.2.9 1.4c-.4.4-.9.6-1.5.8-.6.1-1.1.2-1.7.2zM345.8 5.5v12.3H344c-.3 0-.7-.2-.7-.5l-.2-1c-.5.5-1 .9-1.7 1.2-1.2.6-2.7.6-3.9.1-.5-.2-.9-.6-1.3-1s-.6-.9-.8-1.5c-.2-.6-.3-1.2-.3-1.9V5.5h2.9v7.8c0 .6.1 1.2.5 1.7.4.4 1 .7 1.6.6.5 0 1-.1 1.4-.4.5-.2.9-.6 1.3-.9V5.5h3zM352.8 18c-.9.1-1.8-.3-2.5-.9-.6-.7-.9-1.6-.9-2.5V7.7h-1.3c-.1 0-.3-.1-.4-.2-.1-.1-.2-.3-.2-.5V5.9l2-.3.6-3.3c0-.1.1-.3.2-.4.1-.1.3-.1.4-.1h1.5v3.9h3.3v2.1h-3.3v6.7c0 .3.1.6.3.9.2.2.5.3.8.3.2 0 .3 0 .5-.1l.3-.1.2-.1c.1 0 .1-.1.2-.1s.1 0 .2.1l.2.2.9 1.4c-.4.4-.9.6-1.5.8-.4.1-.9.2-1.5.2zM359.7 12c0 .6.1 1.1.3 1.6.2.4.4.8.7 1.1.3.3.6.5 1 .7.4.1.9.2 1.3.2s.8-.1 1.2-.2c.3-.1.6-.2.9-.4l.7-.4c.2-.1.4-.2.6-.2.2 0 .4.1.5.3l.9 1.1c-.3.4-.7.7-1.1 1-.4.3-.8.5-1.3.6-.4.2-.9.3-1.4.3-.4.1-.9.1-1.3.1-.8 0-1.6-.1-2.4-.4-.7-.3-1.4-.7-1.9-1.3-.6-.6-1-1.3-1.3-2.1-.3-.9-.5-1.9-.5-2.8 0-.8.1-1.6.4-2.4.3-.7.7-1.4 1.2-1.9.5-.6 1.2-1 1.9-1.3.8-.3 1.6-.5 2.5-.5.7 0 1.5.1 2.1.4.6.2 1.2.6 1.7 1.1.5.5.9 1.1 1.1 1.8.3.8.4 1.6.4 2.4 0 .3 0 .6-.1.9-.1.2-.3.3-.5.2l-7.6.1zm5.7-1.8c0-.4-.1-.7-.2-1.1-.1-.3-.3-.6-.5-.9-.2-.3-.5-.5-.8-.6-.4-.2-.8-.2-1.2-.2-.7 0-1.5.2-2 .7-.5.6-.9 1.3-.9 2.1h5.6zM376.9 17.8v-10l-1.1-.2c-.2 0-.4-.1-.6-.2-.1-.1-.2-.3-.2-.5V5.6h1.8v-.9c0-.6.1-1.3.3-1.9.2-.5.5-1 .9-1.4.4-.4.9-.7 1.4-.9.6-.2 1.3-.3 1.9-.3.5 0 1 .1 1.5.2v1.5c0 .1 0 .2-.1.3l-.2.2c-.1 0-.2.1-.3.1h-.2c-.3 0-.6 0-.9.1-.6.1-1 .6-1.1 1.1-.1.4-.2.8-.1 1.1v.8h3.2v2.1H380v10.1h-3.1zM389.7 5.3c.8 0 1.7.1 2.5.4.7.3 1.4.7 1.9 1.2.5.6 1 1.3 1.2 2 .3.8.4 1.7.4 2.6 0 .9-.1 1.8-.4 2.6-.3.7-.7 1.4-1.2 2-.5.6-1.2 1-1.9 1.3-.8.3-1.6.5-2.5.4-.9 0-1.7-.1-2.5-.4-.7-.3-1.4-.7-1.9-1.3-.5-.6-1-1.3-1.2-2-.3-.8-.5-1.7-.4-2.6 0-.9.1-1.8.4-2.6.3-.7.7-1.4 1.2-2 .5-.6 1.2-1 1.9-1.3.8-.2 1.6-.3 2.5-.3zm0 10.4c.9.1 1.7-.3 2.3-1 .5-.9.8-1.9.7-3 .1-1.1-.2-2.1-.7-3-.5-.7-1.4-1.1-2.3-1-.9-.1-1.8.3-2.3 1.1-.6.9-.8 1.9-.8 3-.1 1.1.2 2.1.8 3 .5.6 1.4 1 2.3.9zM400.8 7.6c.3-.7.8-1.3 1.4-1.7.5-.4 1.2-.6 1.9-.6.5 0 1 .1 1.4.4l-.2 2.2c0 .1-.1.2-.2.3-.1.1-.2.1-.3.1-.2 0-.4 0-.5-.1-.2 0-.5-.1-.7-.1-.3 0-.6 0-.9.1-.3.1-.5.2-.7.4-.2.2-.4.4-.5.6-.2.3-.3.6-.4.9v7.6H398V5.5h1.7c.2 0 .5 0 .6.2.1.2.2.4.2.6l.3 1.3zM198.5 27.5v17.3h-3.2v-7.6h-8.1v7.6H184V27.5h3.2V35h8.1v-7.5h3.2zM203.8 39c0 .6.1 1.1.3 1.6.2.4.4.8.7 1.1.3.3.6.5 1 .7.4.1.9.2 1.3.2s.8 0 1.2-.2c.3-.1.6-.2.9-.4l.7-.4c.2-.1.4-.2.6-.2.2 0 .4.1.6.3l.9 1.3c-.3.4-.7.7-1.1 1-.4.3-.8.5-1.3.6-.4.2-.9.3-1.4.3-.4.1-.9.1-1.3.1-.8 0-1.6-.1-2.4-.4-.7-.3-1.4-.7-1.9-1.3-.6-.6-1-1.3-1.3-2.1-.3-.9-.5-1.9-.5-2.8 0-.8.1-1.6.4-2.4.3-.7.7-1.4 1.2-1.9.5-.6 1.1-1 1.9-1.3.8-.3 1.6-.5 2.5-.5.7 0 1.5.1 2.1.4.6.2 1.2.6 1.7 1.1.5.5.9 1.1 1.1 1.8.3.8.4 1.6.4 2.4 0 .3 0 .6-.1.9-.1.2-.3.3-.6.2l-7.6-.1zm5.6-1.8c0-.4 0-.7-.2-1.1-.1-.3-.3-.6-.5-.9-.2-.3-.5-.5-.8-.6-1.1-.4-2.3-.2-3.2.5-.5.6-.9 1.3-.9 2.1h5.6zM214 34.2c1.4-1.3 3.2-2 5.1-1.9.7 0 1.3.1 1.9.3.5.2 1 .6 1.4 1 .4.4.7.9.9 1.5.2.6.3 1.3.3 1.9v7.8h-1.3c-.2 0-.4 0-.6-.1-.2-.1-.3-.3-.4-.5l-.3-.9c-.3.3-.6.5-.9.7-.3.2-.6.4-.9.5-.3.2-.7.3-1 .3-.4.1-.8.1-1.2.1-.5 0-1-.1-1.4-.2-.4-.1-.8-.3-1.1-.6-.3-.3-.6-.6-.8-1-.2-.5-.3-1-.3-1.5 0-.3.1-.6.2-.9.1-.3.3-.6.5-.9.3-.3.6-.6.9-.8.4-.3.9-.5 1.4-.7.6-.2 1.3-.3 1.9-.5.8-.1 1.7-.2 2.5-.2V37c.1-.7-.1-1.3-.5-1.8-.4-.4-1-.6-1.5-.6-.4 0-.8 0-1.2.2-.3.1-.6.2-.8.4l-.6.4c-.2.1-.4.2-.6.2-.2 0-.4-.1-.5-.2-.1-.1-.3-.2-.4-.4l-.7-1zm6.8 5.4c-.7 0-1.4.1-2.2.2-.5.1-1 .2-1.4.4-.3.1-.6.3-.8.6-.4.6-.3 1.4.2 1.8.4.2.8.4 1.2.3.5 0 1.1-.1 1.6-.3.5-.3.9-.6 1.3-1l.1-2zM229.4 27v17.8h-3V27h3zM236.4 45c-.9.1-1.8-.3-2.5-.9-.6-.7-.9-1.6-.9-2.5v-6.9h-1.2c-.2 0-.3 0-.4-.2-.1-.1-.2-.3-.2-.5v-1.2l2-.3.6-3.4c0-.1.1-.3.2-.4.1-.1.3-.1.4-.1h1.5v3.9h3.3v2.1H236v6.7c0 .3.1.6.3.9.2.2.5.3.8.3.2 0 .3 0 .5-.1.1 0 .2-.1.3-.1l.2-.1c.1 0 .1-.1.2-.1s.2 0 .2.1l.2.2.9 1.4c-.4.4-.9.6-1.5.8-.6.3-1.1.4-1.7.4zM244.1 33.8c.5-.4 1-.8 1.6-1.1.6-.3 1.3-.4 2-.4.6 0 1.2.1 1.8.3.5.2 1 .6 1.3 1 .4.4.6.9.8 1.5.2.6.3 1.2.3 1.9v7.8h-3V37c0-.6-.1-1.2-.5-1.8-.4-.4-1-.7-1.6-.6-.5 0-1 .1-1.4.3-.5.3-.9.6-1.3 1v8.9h-3V27h3v6.8zM260.1 34.2c1.4-1.3 3.2-2 5.1-1.9.7 0 1.3.1 1.9.3.5.2 1 .6 1.4 1 .4.4.7.9.9 1.5.2.6.3 1.3.3 1.9v7.8h-1.3c-.2 0-.4 0-.6-.1-.2-.1-.3-.3-.4-.5l-.3-.9c-.3.3-.6.5-.9.7-.3.2-.6.4-.9.5-.3.2-.7.3-1 .3-.4.1-.8.1-1.2.1-.5 0-1-.1-1.4-.2-.4-.1-.8-.3-1.1-.6-.3-.3-.6-.6-.7-1-.2-.5-.3-1-.3-1.5 0-.3.1-.6.2-.9.1-.3.3-.6.5-.9.3-.3.6-.6.9-.8.4-.3.9-.5 1.4-.7.6-.2 1.3-.4 1.9-.5.8-.1 1.7-.2 2.5-.2V37c.1-.7-.1-1.3-.5-1.8-.4-.4-1-.6-1.5-.6-.4 0-.8 0-1.2.2-.3.1-.6.2-.8.4l-.7.4c-.2.1-.4.2-.6.2-.2 0-.4-.1-.5-.2-.1-.1-.3-.2-.3-.4l-.8-1zm6.8 5.4c-.7 0-1.4.1-2.2.2-.5.1-1 .2-1.4.4-.3.1-.6.3-.8.6-.1.2-.2.5-.2.7 0 .4.1.8.5 1.1.4.3.8.4 1.2.4.5 0 1.1-.1 1.6-.3.5-.3.9-.6 1.3-1v-2.1zM275.2 34c.2-.2.5-.5.8-.7.3-.2.6-.4.9-.5.3-.1.7-.3 1-.3.4-.1.8-.1 1.1-.1.6 0 1.2.1 1.8.3.5.2.9.6 1.3 1s.6.9.8 1.5c.2.6.3 1.2.3 1.9v7.8h-3V37c0-.6-.1-1.2-.5-1.8-.4-.4-1-.7-1.6-.6-.5 0-1 .1-1.4.3-.5.3-.9.6-1.3 1v8.9h-3V32.5h1.8c.4 0 .7.2.8.5l.2 1zM296.6 27v17.8h-1.8c-.3 0-.7-.2-.8-.5l-.2-1.2c-.5.6-1.1 1-1.7 1.4-.7.4-1.5.5-2.2.5-.6 0-1.3-.1-1.8-.4-.6-.3-1.1-.7-1.5-1.2-.4-.6-.7-1.3-.9-2-.2-.9-.3-1.8-.3-2.7 0-.9.1-1.7.4-2.5.2-.7.6-1.4 1.1-2 .4-.6 1-1 1.7-1.3.7-.3 1.4-.5 2.2-.5.6 0 1.2.1 1.8.3.5.2.9.5 1.3.9V27h2.7zm-3 8.7c-.3-.4-.7-.7-1.1-.9-.4-.2-.8-.3-1.3-.2-.4 0-.8.1-1.2.2-.4.2-.7.4-.9.8-.3.4-.5.8-.6 1.3-.1.6-.2 1.2-.2 1.8 0 .6 0 1.2.2 1.8.1.4.3.9.5 1.2.2.3.5.5.8.7.3.1.7.2 1 .2.5 0 1.1-.1 1.6-.4.5-.3.9-.7 1.2-1.1v-5.4zM317.6 40.7c.2 0 .3.1.5.2l1.3 1.4c-.7.9-1.6 1.6-2.6 2-1.2.5-2.4.7-3.7.7-1.2 0-2.4-.2-3.5-.7-1-.4-1.9-1-2.6-1.8-.7-.8-1.3-1.8-1.7-2.8-.4-1.1-.6-2.3-.6-3.5 0-1.2.2-2.4.6-3.6.4-1 1-2 1.8-2.8.8-.8 1.7-1.4 2.7-1.8 1.1-.4 2.3-.7 3.5-.6 1.2 0 2.3.2 3.4.6.9.4 1.8.9 2.5 1.6L318 31l-.2.2c-.1.1-.3.1-.4.1-.1 0-.3 0-.4-.1-.1-.1-.3-.2-.4-.2l-.5-.3c-.2-.1-.5-.2-.7-.3-.3-.1-.6-.2-.9-.2-.4-.1-.8-.1-1.2-.1-.7 0-1.5.1-2.1.4-.6.3-1.2.7-1.7 1.2-.5.6-.8 1.2-1.1 1.9-.3.8-.4 1.7-.4 2.6 0 .9.1 1.8.4 2.6.2.7.6 1.4 1.1 1.9.5.5 1 .9 1.7 1.2.6.3 1.4.4 2.1.4.4 0 .8 0 1.2-.1.6-.1 1.3-.3 1.8-.6.3-.2.6-.4.8-.6.1-.1.2-.1.2-.2.1-.1.2-.1.3-.1zM320.8 34.2c1.4-1.3 3.2-2 5.1-1.9.7 0 1.3.1 1.9.3 1.1.5 1.9 1.4 2.3 2.5.2.6.3 1.3.3 1.9v7.8h-1.3c-.2 0-.4 0-.6-.1-.2-.1-.3-.3-.4-.5l-.3-.9c-.3.3-.6.5-.9.7-.3.2-.6.4-.9.5-.3.2-.7.3-1 .3-.4.1-.8.1-1.2.1-.5 0-1-.1-1.4-.2-.4-.1-.8-.3-1.1-.6-.3-.3-.6-.6-.8-1-.2-.5-.3-1-.3-1.5 0-.3.1-.6.1-.9.1-.3.3-.6.5-.9.3-.3.6-.6.9-.8.4-.3.9-.5 1.4-.7.6-.2 1.2-.3 1.9-.5.8-.1 1.7-.2 2.5-.2V37c.1-.7-.1-1.3-.5-1.8-.4-.4-1-.6-1.5-.6-.4 0-.8 0-1.2.2-.3.1-.6.2-.8.4l-.6.4c-.2.1-.4.2-.6.2-.2 0-.4-.1-.5-.2-.1-.1-.3-.2-.4-.4l-.6-1zm6.7 5.4c-.7 0-1.4.1-2.1.2-.5.1-1 .2-1.4.4-.3.1-.6.3-.8.6-.4.6-.3 1.4.2 1.8.4.2.8.4 1.2.3.5 0 1.1-.1 1.6-.3.5-.3.9-.6 1.3-1v-2zM335.9 34.6c.3-.7.8-1.3 1.4-1.7.5-.4 1.2-.6 1.9-.6.5 0 1 .1 1.4.4l-.2 2.2c0 .1-.1.2-.2.3-.1.1-.2.1-.3.1-.2 0-.4 0-.5-.1-.2 0-.5-.1-.7-.1-.3 0-.6 0-.9.2-.3.1-.5.2-.7.4-.2.2-.4.4-.5.7-.2.3-.3.6-.4.9v7.6h-3V32.5h1.7c.2 0 .4 0 .6.2.1.2.2.4.2.6l.2 1.3zM344 39c0 .6.1 1.1.3 1.6.1.4.4.8.7 1.1.3.3.6.5 1 .7.4.1.9.2 1.3.2s.8-.1 1.2-.2c.3-.1.6-.2.9-.4l.7-.4c.2-.1.4-.2.6-.2.2 0 .4.1.5.3l.9 1.1c-.3.4-.7.7-1.1 1-.4.3-.8.5-1.3.6-.4.2-.9.3-1.4.3-.4.1-.9.1-1.3.1-.8 0-1.6-.1-2.4-.4-.7-.3-1.4-.7-1.9-1.3-.6-.6-1-1.3-1.3-2.1-.3-.9-.5-1.9-.5-2.8 0-.8.1-1.6.4-2.4.3-.7.7-1.4 1.2-1.9.5-.6 1.2-1 1.9-1.3.8-.3 1.6-.5 2.5-.5.7 0 1.5.1 2.1.4.6.2 1.2.6 1.7 1.1.5.5.9 1.1 1.1 1.8.3.8.4 1.6.4 2.4 0 .3 0 .6-.1.9-.1.2-.3.3-.5.2l-7.6.1zm5.6-1.8c0-.4 0-.7-.2-1.1-.1-.3-.3-.6-.5-.9-.2-.3-.5-.5-.8-.6-.4-.2-.8-.2-1.2-.2-.7 0-1.5.2-2 .7-.5.6-.9 1.3-.9 2.1h5.6zM374.2 44.8h-2.9c-.5 0-1-.2-1.2-.6l-3.6-5.5c-.1-.2-.3-.3-.5-.4-.2-.1-.5-.1-.7-.1h-1.4V45h-3.2V27.5h5.3c1 0 2 .1 3 .4.7.2 1.5.5 2.1 1 .5.4.9 1 1.2 1.6.5 1.2.5 2.5.1 3.7-.3 1-1 1.9-1.9 2.5-.5.3-1 .6-1.6.8.2.1.4.3.6.4.2.2.3.4.5.6l4.2 6.3zm-8.3-9.1c.5 0 1.1-.1 1.6-.2.4-.1.8-.3 1.1-.6.3-.3.5-.6.6-1 .2-.4.2-.8.2-1.2 0-.8-.3-1.5-.9-2-.8-.5-1.7-.8-2.6-.7h-2.1v5.8l2.1-.1zM377 39c0 .6.1 1.1.3 1.6.2.4.4.8.7 1.1.3.3.6.5 1 .7.4.1.9.2 1.3.2s.8-.1 1.2-.2c.3-.1.6-.2.9-.4l.7-.4c.2-.1.4-.2.6-.2.2 0 .4.1.5.3l.9 1.1c-.3.4-.7.7-1.1 1-.4.3-.8.5-1.3.6-.4.2-.9.3-1.4.3-.4.1-.9.1-1.3.1-.8 0-1.6-.1-2.4-.4-.7-.3-1.4-.7-1.9-1.3-.6-.6-1-1.3-1.3-2.1-.3-.9-.5-1.9-.5-2.8 0-.8.1-1.6.4-2.4.3-.7.7-1.4 1.2-1.9.5-.6 1.2-1 1.9-1.3.8-.3 1.6-.5 2.5-.5.7 0 1.5.1 2.1.4.6.2 1.2.6 1.7 1.1.5.5.9 1.1 1.1 1.8.3.8.4 1.6.4 2.4 0 .3 0 .6-.1.9-.1.2-.3.3-.5.2l-7.6.1zm5.6-1.8c0-.4 0-.7-.2-1.1-.1-.3-.3-.6-.5-.9-.2-.3-.5-.5-.8-.6-.4-.2-.8-.2-1.2-.2-.7 0-1.5.2-2 .7-.5.6-.9 1.3-.9 2.1h5.6zM395 34.9c-.1.1-.1.2-.2.3-.1.1-.2.1-.3.1-.2 0-.3 0-.5-.1l-.6-.3c-.2-.1-.5-.2-.7-.3-.3-.1-.7-.1-1-.1-.5 0-1 .1-1.4.4-.3.2-.5.6-.5 1 0 .2.1.5.3.7.2.2.4.4.7.5.3.2.7.3 1 .4.4.1.7.2 1.1.3.4.1.7.3 1.1.4.4.2.7.4 1 .6.3.3.5.6.7.9.2.4.3.8.3 1.3 0 .6-.1 1.1-.3 1.6-.2.5-.5.9-.9 1.3-.5.4-1 .7-1.5.8-.7.2-1.4.3-2.1.3-.4 0-.8 0-1.2-.1l-1.2-.3c-.3-.1-.7-.3-1-.5-.3-.2-.6-.4-.8-.6l.7-1.1.3-.3c.1-.1.3-.1.5-.1s.4.1.5.2l.6.3c.2.1.5.3.8.3.4.1.7.2 1.1.2.3 0 .6 0 .9-.1l.6-.3c.2-.1.3-.3.4-.5.1-.2.1-.4.1-.6 0-.3-.1-.5-.2-.7-.2-.2-.4-.4-.7-.5-.3-.1-.7-.3-1-.4l-1.2-.4c-.4-.1-.7-.3-1.1-.5-.4-.2-.7-.4-1-.7-.3-.3-.5-.6-.7-1-.2-.4-.3-.9-.2-1.4 0-.5.1-1 .3-1.4.2-.5.5-.9.9-1.2.4-.4.9-.6 1.4-.8.6-.2 1.3-.3 2-.3.8 0 1.6.1 2.3.4.6.2 1.2.6 1.7 1.1l-1 1.2zM400.2 39c0 .6.1 1.1.3 1.6.2.4.4.8.7 1.1.3.3.6.5 1 .7.4.1.9.2 1.3.2s.8-.1 1.2-.2c.3-.1.6-.2.9-.4l.7-.4c.2-.1.4-.2.6-.2.2 0 .4.1.5.3l.9 1.1c-.3.4-.7.7-1.1 1-.4.3-.8.5-1.3.6-.4.2-.9.3-1.4.3-.4.1-.9.1-1.3.1-.8 0-1.6-.1-2.4-.4-.7-.3-1.4-.7-1.9-1.3-.6-.6-1-1.3-1.3-2.1-.3-.9-.5-1.9-.5-2.8 0-.8.2-1.6.5-2.4.3-.7.7-1.4 1.2-1.9.5-.6 1.2-1 1.9-1.3.8-.3 1.6-.5 2.5-.5.7 0 1.5.1 2.1.4.6.2 1.2.6 1.7 1.1.5.5.9 1.1 1.1 1.8.3.8.4 1.6.4 2.4 0 .3 0 .6-.1.9-.1.2-.3.3-.5.2l-7.7.1zm5.7-1.8c0-.4 0-.7-.2-1.1-.1-.3-.3-.6-.5-.9-.2-.3-.5-.5-.8-.6-.4-.2-.8-.2-1.2-.2-.7 0-1.5.2-2 .7-.5.6-.9 1.3-.9 2.1h5.6zM410.4 34.2c1.4-1.3 3.2-2 5.1-1.9.7 0 1.3.1 1.9.3.5.2 1 .6 1.4 1 .4.4.7.9.9 1.5.2.6.3 1.3.3 1.9v7.8h-1.3c-.2 0-.4 0-.6-.1-.2-.1-.3-.3-.4-.5l-.3-.9c-.3.3-.6.5-.9.7-.3.2-.6.4-.9.5-.3.2-.7.3-1 .3-.4.1-.8.1-1.2.1-.5 0-1-.1-1.4-.2-.4-.1-.8-.3-1.1-.6-.3-.3-.6-.6-.7-1-.2-.5-.3-1-.3-1.5 0-.3.1-.6.1-.9.1-.3.3-.6.5-.9.3-.3.6-.6.9-.8.4-.3.9-.5 1.4-.7.6-.2 1.2-.4 1.9-.5.8-.1 1.7-.2 2.5-.2V37c.1-.7-.1-1.3-.5-1.8-.4-.4-1-.6-1.5-.6-.4 0-.8 0-1.2.2-.3.1-.6.2-.8.4l-.6.4c-.2.1-.4.2-.7.2-.2 0-.4-.1-.5-.2-.1-.1-.3-.2-.4-.4l-.6-1zm6.8 5.4c-.7 0-1.4.1-2.1.2-.5.1-1 .2-1.4.4-.3.1-.6.3-.8.6-.4.6-.3 1.4.2 1.8.4.2.8.4 1.2.3.5 0 1.1-.1 1.6-.3.5-.3.9-.6 1.3-1v-2zM425.6 34.6c.3-.7.8-1.3 1.4-1.7.5-.4 1.2-.6 1.9-.6.5 0 1 .1 1.4.4l-.2 2.2c0 .1-.1.2-.2.3-.1.1-.2.1-.3.1-.2 0-.4 0-.5-.1-.2 0-.5-.1-.7-.1-.3 0-.6 0-.9.2-.3.1-.5.2-.7.4-.2.2-.4.4-.5.7-.2.3-.3.6-.4.9v7.6h-3V32.5h1.7c.4-.1.8.2.9.5v.2l.1 1.4zM440.1 35.1l-.3.3c-.1.1-.2.1-.4.1s-.3-.1-.4-.1l-.5-.3c-.2-.1-.5-.2-.7-.3-.3-.1-.7-.2-1-.1-.5 0-.9.1-1.4.3-.4.2-.7.5-1 .8-.3.4-.5.8-.6 1.3-.1.6-.2 1.1-.2 1.7 0 .6.1 1.2.2 1.8.1.5.3.9.6 1.3.3.3.6.6 1 .8.4.2.8.3 1.3.3.4 0 .8 0 1.1-.2.3-.1.5-.2.7-.4l.5-.4c.1-.1.3-.2.5-.2s.4.1.5.3l.9 1.1c-.3.4-.7.7-1.1 1-.4.3-.8.5-1.2.6-.4.2-.8.3-1.3.3-.4.1-.9.1-1.3.1-.7 0-1.5-.1-2.1-.4-.7-.3-1.3-.7-1.8-1.2-.5-.6-.9-1.3-1.2-2a9.2 9.2 0 0 1 0-5.2c.2-.7.6-1.4 1.1-2 .5-.6 1.2-1 1.9-1.3.8-.3 1.7-.5 2.6-.5.8 0 1.6.1 2.4.4.7.3 1.3.7 1.8 1.2l-.6.9zM445.8 33.8c.5-.4 1-.8 1.6-1.1.6-.3 1.3-.4 2-.4.6 0 1.2.1 1.8.3.5.2.9.6 1.3 1s.6.9.8 1.5c.2.6.3 1.2.3 1.9v7.8h-3V37c0-.6-.1-1.2-.5-1.8-.4-.4-1-.7-1.6-.6-.5 0-1 .1-1.4.3-.5.3-.9.6-1.3 1v8.9h-3V27h3v6.8zM226.4 1.9c0 .2-.1.5-.2.7-.1.2-.2.4-.4.6-.2.2-.4.3-.6.4-.2.1-.5.2-.7.2-.2 0-.5 0-.7-.2-.2-.1-.4-.2-.6-.4-.2-.2-.3-.4-.4-.6-.1-.2-.2-.5-.1-.7 0-.3 0-.5.1-.7.1-.2.2-.4.4-.6.2-.2.4-.3.6-.4.2-.1.5-.2.7-.2.3 0 .5 0 .7.2.2.1.4.2.6.4.2.2.3.4.4.6.1.2.2.5.2.7zm-.4 3.6v12.3h-3V5.5h3zM217.7 18c-.9.1-1.8-.3-2.5-.9-.6-.7-.9-1.6-.9-2.5V7.7H213c-.2 0-.3-.1-.4-.2-.1-.1-.2-.3-.2-.5V5.9l2-.3.6-3.3c0-.1.1-.3.2-.4.1-.1.3-.1.4-.1h1.5v3.9h3.3v2.1h-3.3v6.7c0 .3.1.6.3.9.2.2.5.3.8.3.2 0 .3 0 .5-.1l.3-.1.2-.1c.1 0 .1-.1.2-.1s.1 0 .2.1l.2.2.9 1.4c-.4.4-.9.6-1.5.8-.4.1-1 .2-1.5.2zM323.7 1.9c0 .2-.1.5-.1.7-.1.2-.2.4-.4.6-.2.2-.4.3-.6.4-.2.1-.5.2-.8.2-.2 0-.5-.1-.7-.2-.2-.1-.4-.2-.6-.4-.2-.2-.3-.4-.4-.6-.1-.2-.2-.5-.1-.7 0-.3 0-.5.1-.7.1-.2.2-.4.4-.6.2-.2.4-.3.6-.4.2-.1.5-.2.7-.2.3 0 .5 0 .8.2.4.2.8.6 1 1 0 .2.1.5.1.7zm-.4 3.6v12.3h-3V5.5h3zM315 18c-.9.1-1.8-.3-2.5-.9-.6-.7-.9-1.6-.9-2.5V7.7h-1.3c-.1 0-.3-.1-.4-.2-.1-.1-.2-.3-.2-.5V5.9l2-.3.6-3.3c0-.1.1-.3.2-.4.1-.1.3-.1.4-.1h1.5v3.9h3.3v2.1h-3.3v6.7c0 .3.1.6.3.9.2.2.5.3.8.3.2 0 .3 0 .5-.1.1 0 .2-.1.3-.1l.2-.1c.1 0 .1-.1.2-.1s.1 0 .2.1l.2.2.9 1.4c-.4.4-.9.6-1.5.8-.3.1-.9.2-1.5.2z" class="st0"/></g></g></svg>