<svg xmlns="http://www.w3.org/2000/svg" width="154" height="19" fill="none"><path fill="#fff" fill-rule="evenodd" d="M73.953 11.435c-.22.082-.405.2-.559.354-.152.154-.27.342-.351.563-.082.22-.123.47-.123.746v.36h-.71v.477c0 .085.028.151.082.198.055.048.126.08.216.096l.412.066v3.97h1.144V14.29h1.201v-.832h-1.238v-.32c0-.182.019-.332.058-.453a.723.723 0 0 1 .17-.293.616.616 0 0 1 .27-.156 1.38 1.38 0 0 1 .365-.046c.1 0 .19-.01.267-.032.078-.022.12-.079.125-.17l.025-.585a1.997 1.997 0 0 0-.614-.091c-.274 0-.521.04-.74.123ZM11.865.796v10.756L3.588.796H.004v17.47H3.84V7.16l8.555 11.106H15.7V.796h-3.835ZM18.809 18.266h3.886V.796h-3.886v17.47ZM36.854.796V7.83h-7.166V.796H25.8v17.47h3.887v-6.714h7.166v6.714h3.887V.796h-3.887ZM52.664 7.825l-.196.006h-4.726V4.266h4.726l.196.006c.842.025 2.023.352 2.023 1.776 0 1.425-1.18 1.752-2.023 1.777Zm1.994 3.094c2.22-.462 3.866-2.178 3.866-4.995 0-3.139-2.191-5.033-4.932-5.12V.798h-9.744v17.47h3.886v-6.715h2.877l4.14 6.715h4.445l-4.538-7.348Z" clip-rule="evenodd"/><path fill="#EA5D4E" fill-rule="evenodd" d="M64.965 18.264h1.542V.796h-1.542v17.468Z" clip-rule="evenodd"/><path fill="#fff" fill-rule="evenodd" d="M73.746 3.516a5.44 5.44 0 0 0-.007-.272c-.005-.1-.013-.2-.021-.3l3.508 4.559c.062.082.127.14.192.17a.544.544 0 0 0 .245.047h.645V.874h-1.1v4.162a6.256 6.256 0 0 0 .032.62l-3.522-4.579a1.016 1.016 0 0 0-.093-.107.342.342 0 0 0-.087-.06.335.335 0 0 0-.1-.029A1.081 1.081 0 0 0 73.3.874h-.656V7.72h1.102V3.516ZM81.965 7.416c.116-.084.234-.18.355-.291l.102.345c.032.101.078.169.14.202.06.033.146.05.256.05h.514V4.653c0-.275-.04-.527-.119-.757a1.64 1.64 0 0 0-.346-.595 1.564 1.564 0 0 0-.553-.388 1.884 1.884 0 0 0-.745-.14c-.775 0-1.436.256-1.983.767l.209.374c.034.06.079.11.136.152a.324.324 0 0 0 .198.06c.094 0 .18-.021.256-.065.076-.044.161-.093.253-.15a1.4 1.4 0 0 1 .787-.215c.257 0 .452.08.587.237.135.157.201.4.201.727v.287c-.541 0-.995.047-1.36.142-.364.095-.657.215-.876.36a1.346 1.346 0 0 0-.473.484c-.094.178-.14.36-.14.543 0 .219.034.41.102.576.068.164.163.302.285.413.122.11.269.194.44.25.168.055.353.083.556.083.17 0 .325-.015.464-.043.14-.03.272-.071.396-.128.123-.058.243-.128.358-.21Zm-.861-.423a.76.76 0 0 1-.468-.134c-.118-.09-.179-.237-.179-.444 0-.105.03-.202.086-.29a.7.7 0 0 1 .29-.234c.138-.067.318-.122.541-.165a4.57 4.57 0 0 1 .838-.064v.812a2.216 2.216 0 0 1-.248.228 1.506 1.506 0 0 1-.256.16 1.25 1.25 0 0 1-.279.098 1.57 1.57 0 0 1-.325.033ZM86.927 6.797a.362.362 0 0 0-.069-.077.126.126 0 0 0-.083-.027.147.147 0 0 0-.083.027 2.408 2.408 0 0 1-.097.054.891.891 0 0 1-.125.054.508.508 0 0 1-.178.026.376.376 0 0 1-.298-.128.522.522 0 0 1-.112-.355V3.738h1.255v-.833h-1.255V1.376h-.593a.266.266 0 0 0-.17.052.23.23 0 0 0-.086.146l-.24 1.327-.766.127v.464c0 .082.021.143.067.184a.23.23 0 0 0 .16.062h.483v2.713c0 .42.112.75.334.987.223.239.541.359.952.359.23 0 .457-.037.673-.11.216-.072.409-.18.576-.322l-.345-.568ZM88.125 7.72h1.146V2.862h-1.146V7.72ZM88.19 1.89c.065.066.14.12.23.16a.718.718 0 0 0 .569 0 .796.796 0 0 0 .234-.16.822.822 0 0 0 .16-.232.724.724 0 0 0 0-.578.806.806 0 0 0-.16-.237.812.812 0 0 0-.234-.158.718.718 0 0 0-.954.395.742.742 0 0 0 .155.81ZM94.308 7.115c.205-.219.363-.48.474-.791.111-.31.167-.657.167-1.041 0-.383-.056-.728-.167-1.037a2.19 2.19 0 0 0-.474-.786 2.083 2.083 0 0 0-.74-.498 2.56 2.56 0 0 0-.967-.176c-.358 0-.68.06-.97.176a2.09 2.09 0 0 0-.745.498 2.202 2.202 0 0 0-.48.786c-.112.309-.168.654-.168 1.037 0 .384.056.732.168 1.04.114.311.274.573.48.792.205.218.453.385.745.501.29.117.612.176.97.176.354 0 .677-.059.967-.176.29-.116.536-.283.74-.501Zm-1.707-.223c-.402 0-.7-.137-.893-.41-.191-.273-.286-.67-.286-1.19 0-.521.095-.92.286-1.196.193-.277.49-.414.893-.414.395 0 .688.137.88.412.19.275.285.674.285 1.198 0 .524-.095.921-.285 1.193-.192.271-.484.407-.88.407ZM98.847 4.629V7.72h1.146V4.63c0-.271-.035-.52-.105-.746a1.677 1.677 0 0 0-.306-.582 1.375 1.375 0 0 0-.504-.38 1.692 1.692 0 0 0-.692-.134c-.16 0-.309.015-.445.047a1.702 1.702 0 0 0-.383.137c-.119.06-.232.131-.34.214a2.876 2.876 0 0 0-.303.274l-.08-.384c-.046-.142-.142-.213-.291-.213h-.7V7.72h1.146V4.208a2.02 2.02 0 0 1 .493-.375c.173-.09.357-.137.555-.137.27 0 .472.081.607.244.135.162.202.392.202.689ZM104.39 3.3a1.583 1.583 0 0 0-.554-.388 1.883 1.883 0 0 0-.745-.14c-.774 0-1.433.256-1.982.767l.209.374a.475.475 0 0 0 .133.152.332.332 0 0 0 .201.06.516.516 0 0 0 .256-.065c.077-.044.161-.093.251-.15.093-.054.2-.103.324-.148s.279-.067.465-.067c.255 0 .452.08.586.237.134.157.203.4.203.727v.287c-.542 0-.995.047-1.362.142-.364.095-.656.215-.876.36-.22.142-.378.305-.471.484-.094.178-.141.36-.141.544 0 .218.034.41.102.575.068.164.163.302.285.413.122.11.268.194.439.25.17.055.355.083.557.083.169 0 .325-.015.464-.043.138-.03.27-.071.394-.128.123-.057.243-.128.36-.21.116-.085.235-.18.355-.292l.102.345c.031.102.078.169.139.202.062.033.147.05.255.05h.516V4.652c0-.274-.039-.527-.118-.757a1.657 1.657 0 0 0-.347-.595Zm-.655 3.173a2.303 2.303 0 0 1-.248.228 1.511 1.511 0 0 1-.256.16 1.182 1.182 0 0 1-.281.098 1.556 1.556 0 0 1-.324.033.765.765 0 0 1-.468-.134c-.119-.09-.178-.237-.178-.444a.51.51 0 0 1 .087-.29.686.686 0 0 1 .29-.234c.134-.067.316-.122.539-.165.225-.042.505-.064.839-.064v.812ZM106.055 7.752h1.147V.716h-1.147v7.036ZM110.508 7.752h1.253V.905h-1.253v6.847ZM117.404 7.74V4.653c0-.27-.035-.518-.104-.743a1.672 1.672 0 0 0-.306-.582 1.376 1.376 0 0 0-.503-.378 1.671 1.671 0 0 0-.69-.135 1.94 1.94 0 0 0-.445.047 1.62 1.62 0 0 0-.382.138c-.119.06-.232.13-.339.212a2.68 2.68 0 0 0-.302.274l-.079-.382c-.046-.142-.144-.213-.292-.213h-.7V7.74h1.144V4.233a1.99 1.99 0 0 1 .491-.373c.174-.092.359-.138.557-.138.268 0 .47.081.604.244.134.162.202.391.202.687V7.74h1.144ZM120.41 6.818a.762.762 0 0 1-.242.13 1.13 1.13 0 0 1-.351.05c-.172 0-.314-.02-.427-.061a2.066 2.066 0 0 1-.295-.132 4.434 4.434 0 0 1-.219-.134.366.366 0 0 0-.201-.06.332.332 0 0 0-.176.041.366.366 0 0 0-.121.124l-.265.444c.093.085.199.164.322.236a2.708 2.708 0 0 0 1.328.36c.305 0 .578-.04.813-.121a1.71 1.71 0 0 0 .595-.336c.161-.143.283-.313.367-.51a1.67 1.67 0 0 0 .125-.645c0-.196-.033-.362-.1-.502a1.145 1.145 0 0 0-.264-.356c-.11-.1-.236-.181-.373-.245a4.468 4.468 0 0 0-.426-.173 12.34 12.34 0 0 0-.427-.14 2.598 2.598 0 0 1-.373-.144.919.919 0 0 1-.264-.187.368.368 0 0 1-.098-.262c0-.157.063-.284.193-.383.131-.098.308-.147.532-.147.146 0 .273.016.378.047.108.032.201.067.285.107.083.04.158.076.219.107a.42.42 0 0 0 .18.047c.052 0 .097-.01.13-.031a.28.28 0 0 0 .096-.106l.26-.42a1.984 1.984 0 0 0-.673-.435 2.303 2.303 0 0 0-.892-.167c-.294 0-.553.04-.778.122a1.65 1.65 0 0 0-.559.32c-.151.135-.264.291-.34.471-.078.18-.117.369-.117.567 0 .214.033.397.1.549.067.15.155.279.265.383.108.103.233.19.373.257.142.067.284.127.433.177.146.05.29.098.429.14.141.042.266.09.375.144.112.054.2.117.265.19.066.071.1.164.1.277a.52.52 0 0 1-.182.406ZM122.857 6.473c0 .418.11.747.334.986.223.237.539.356.949.356.232 0 .456-.037.673-.108.216-.073.407-.18.573-.321l-.343-.57a.317.317 0 0 0-.07-.076.127.127 0 0 0-.083-.026.164.164 0 0 0-.083.026c-.027.017-.059.035-.094.055a1.271 1.271 0 0 1-.125.053.51.51 0 0 1-.178.026.373.373 0 0 1-.297-.127.524.524 0 0 1-.112-.355V3.765h1.252v-.832h-1.252V1.406h-.592a.264.264 0 0 0-.169.052.243.243 0 0 0-.087.146l-.24 1.324-.765.128v.462c0 .083.022.144.067.185a.232.232 0 0 0 .161.062h.481v2.708ZM126.242 7.74h1.145V2.89h-1.145v4.85ZM126.307 1.92a.73.73 0 0 0 .51.217.749.749 0 0 0 .681-.45.725.725 0 0 0 0-.576.774.774 0 0 0-.16-.237.784.784 0 0 0-.234-.158.705.705 0 0 0-.567 0 .765.765 0 0 0-.23.158.76.76 0 0 0-.213.53.759.759 0 0 0 .213.516ZM131.075 6.74a.123.123 0 0 0-.083-.026.15.15 0 0 0-.083.026 1.065 1.065 0 0 1-.22.108.518.518 0 0 1-.178.026.377.377 0 0 1-.297-.127.524.524 0 0 1-.112-.355V3.764h1.251v-.831h-1.251V1.406h-.592a.264.264 0 0 0-.169.052.228.228 0 0 0-.086.145l-.241 1.325-.764.127v.463c0 .083.021.144.066.185a.228.228 0 0 0 .16.06h.482v2.71c0 .418.112.747.334.985.222.238.539.357.949.357.231 0 .456-.037.673-.108.216-.073.406-.18.573-.321l-.342-.57a.392.392 0 0 0-.07-.076ZM135.166 6.397a1.969 1.969 0 0 1-.49.372c-.174.089-.36.134-.556.134-.268 0-.471-.081-.605-.243-.135-.163-.202-.392-.202-.688V2.89h-1.145v3.08c0 .272.035.52.105.746.071.224.172.42.308.583.136.164.304.29.503.38.199.09.429.136.688.136.158 0 .304-.018.442-.05.139-.034.265-.08.386-.137.118-.058.23-.13.336-.214a3.24 3.24 0 0 0 .304-.276l.079.387c.046.143.143.213.293.213h.7V2.89h-1.146v3.506ZM137.329 3.765h.481v2.708c0 .419.113.747.335.986.222.238.539.357.951.357.23 0 .455-.037.671-.11.216-.072.408-.18.574-.32l-.343-.568a.362.362 0 0 0-.069-.077.132.132 0 0 0-.084-.027.149.149 0 0 0-.083.027 1.014 1.014 0 0 1-.221.108.533.533 0 0 1-.178.025.373.373 0 0 1-.296-.127.523.523 0 0 1-.112-.355V3.765h1.251v-.832h-1.251V1.406h-.593a.274.274 0 0 0-.169.052.231.231 0 0 0-.085.146l-.242 1.325-.764.127v.463c0 .083.023.143.069.185a.222.222 0 0 0 .158.06ZM144.678 6.51a.242.242 0 0 0-.12-.029.447.447 0 0 0-.221.066 7.97 7.97 0 0 1-.264.148c-.1.054-.217.102-.351.146a1.556 1.556 0 0 1-.481.066c-.376 0-.678-.116-.908-.35-.228-.233-.359-.598-.393-1.097h2.938a.332.332 0 0 0 .128-.02.159.159 0 0 0 .081-.07.336.336 0 0 0 .042-.139 2.673 2.673 0 0 0-.14-1.152 1.974 1.974 0 0 0-.427-.69c-.181-.188-.4-.33-.651-.43a2.279 2.279 0 0 0-.827-.146c-.354 0-.675.064-.957.19a2.165 2.165 0 0 0-.719.512 2.25 2.25 0 0 0-.45.762 2.732 2.732 0 0 0-.157.933c0 .425.06.8.18 1.122.12.325.285.595.495.813.211.22.457.385.742.497.284.112.591.168.921.168.167 0 .34-.012.518-.037a2.76 2.76 0 0 0 .523-.131c.171-.062.337-.144.493-.246.158-.102.3-.229.426-.38l-.332-.426a.27.27 0 0 0-.089-.08Zm-2.352-2.571c.188-.193.45-.289.783-.289.17 0 .318.03.445.088a.865.865 0 0 1 .315.239.99.99 0 0 1 .185.352c.04.133.062.276.062.427h-2.151c.052-.353.173-.625.361-.817ZM91.166 14.395h-3.148V11.45h-1.256v6.847h1.256v-2.992h3.148v2.992h1.258V11.45h-1.258v2.945ZM97.163 13.94a1.805 1.805 0 0 0-.651-.43 2.286 2.286 0 0 0-.83-.147c-.354 0-.675.064-.958.19a2.173 2.173 0 0 0-.72.514c-.196.217-.346.47-.451.763a2.737 2.737 0 0 0-.159.935c0 .425.06.802.182 1.125.12.323.285.596.496.814.21.22.458.385.743.497.284.113.592.168.924.168.167 0 .34-.012.517-.038a2.65 2.65 0 0 0 .524-.13c.172-.062.337-.144.495-.245.159-.104.3-.231.427-.381l-.333-.427a.243.243 0 0 0-.21-.11.442.442 0 0 0-.22.067l-.264.147c-.101.053-.22.103-.353.146a1.526 1.526 0 0 1-.482.068c-.377 0-.68-.117-.908-.352-.23-.232-.361-.6-.396-1.098h2.944a.34.34 0 0 0 .129-.021.169.169 0 0 0 .081-.071.347.347 0 0 0 .042-.137 2.654 2.654 0 0 0-.141-1.155 1.94 1.94 0 0 0-.427-.692Zm-2.604 1.37c.052-.353.173-.626.361-.819.19-.193.45-.288.785-.288.17 0 .318.028.445.087a.893.893 0 0 1 .502.592c.04.134.06.276.06.428h-2.153ZM101.942 13.878a1.574 1.574 0 0 0-.554-.388 1.862 1.862 0 0 0-.745-.14c-.773 0-1.434.256-1.981.766l.209.375a.463.463 0 0 0 .133.152.328.328 0 0 0 .2.061.518.518 0 0 0 .257-.066 7.72 7.72 0 0 0 .25-.15c.093-.054.2-.104.325-.148a1.39 1.39 0 0 1 .465-.066c.255 0 .452.079.586.236.134.157.202.4.202.728v.286c-.541 0-.995.047-1.36.142-.366.095-.659.214-.878.36-.22.143-.377.305-.47.484-.095.178-.144.36-.144.543 0 .219.035.41.105.576a1.126 1.126 0 0 0 .722.663c.17.055.357.082.558.082.17 0 .324-.014.464-.042.139-.03.27-.072.394-.128.124-.057.244-.127.361-.21a4.48 4.48 0 0 0 .354-.292l.103.345c.03.102.077.169.139.202.061.033.146.05.254.05h.516V15.23a2.32 2.32 0 0 0-.118-.758 1.656 1.656 0 0 0-.347-.595Zm-.651 3.174a2.389 2.389 0 0 1-.248.226 1.482 1.482 0 0 1-.257.16 1.276 1.276 0 0 1-.605.131.756.756 0 0 1-.468-.134c-.119-.088-.178-.236-.178-.443 0-.105.028-.202.087-.29a.673.673 0 0 1 .29-.234c.136-.068.316-.122.539-.164.225-.043.506-.065.84-.065v.813ZM103.609 18.297h1.147v-7.036h-1.147v7.036ZM108.449 17.297a.129.129 0 0 0-.083-.026.156.156 0 0 0-.083.026c-.028.017-.06.035-.096.054a.778.778 0 0 1-.125.055.541.541 0 0 1-.178.026.375.375 0 0 1-.298-.128.519.519 0 0 1-.112-.356v-2.631h1.253v-.834h-1.253v-1.53h-.593a.27.27 0 0 0-.171.052.234.234 0 0 0-.085.147l-.241 1.326-.767.128v.463c0 .082.023.143.068.185a.227.227 0 0 0 .16.063h.483v2.712c0 .42.112.75.334.988.224.238.54.358.952.358.231 0 .457-.037.673-.11a1.75 1.75 0 0 0 .576-.322l-.344-.568a.435.435 0 0 0-.07-.078ZM113.383 13.877a1.37 1.37 0 0 0-.503-.378 1.668 1.668 0 0 0-.692-.136c-.301 0-.561.056-.786.166a2.498 2.498 0 0 0-.612.435v-2.702h-1.145v7.036h1.145v-3.514c.155-.158.319-.282.492-.374.173-.092.36-.137.558-.137.269 0 .47.081.605.243.135.163.203.393.203.69v3.092h1.145v-3.092c0-.271-.033-.52-.103-.747a1.698 1.698 0 0 0-.307-.582ZM119.971 15.375a2.39 2.39 0 0 0 .628-.302c.185-.126.34-.273.465-.44a1.95 1.95 0 0 0 .288-.56c.066-.205.099-.423.099-.653 0-.29-.048-.556-.146-.798a1.546 1.546 0 0 0-.459-.622 2.242 2.242 0 0 0-.803-.405c-.327-.097-.719-.145-1.178-.145h-2.045v6.847h1.249v-2.674h.532c.124 0 .218.017.281.052a.487.487 0 0 1 .175.175l1.41 2.192a.577.577 0 0 0 .192.19.55.55 0 0 0 .278.065h1.123l-1.68-2.528a1.262 1.262 0 0 0-.409-.394Zm-.507-.757c-.174.06-.38.09-.615.09h-.779v-2.273h.797c.462 0 .804.094 1.028.28.224.186.338.453.338.8 0 .173-.028.334-.085.478a.986.986 0 0 1-.253.376 1.16 1.16 0 0 1-.431.25ZM126.242 13.94a1.82 1.82 0 0 0-.653-.43 2.28 2.28 0 0 0-.828-.147c-.355 0-.676.064-.96.19a2.177 2.177 0 0 0-.718.514c-.198.217-.347.47-.453.763a2.763 2.763 0 0 0-.157.935c0 .425.06.802.181 1.125.12.323.285.596.496.814.211.22.458.385.743.497.283.113.592.168.924.168.167 0 .339-.012.518-.038.177-.024.352-.069.523-.13.172-.062.338-.144.495-.245.158-.104.3-.231.427-.381l-.333-.427a.295.295 0 0 0-.089-.08.242.242 0 0 0-.121-.029.448.448 0 0 0-.222.066 8.876 8.876 0 0 1-.263.147c-.1.053-.218.103-.352.146a1.53 1.53 0 0 1-.482.068c-.377 0-.68-.117-.909-.352-.229-.232-.36-.6-.395-1.098h2.943a.341.341 0 0 0 .13-.021.164.164 0 0 0 .081-.071.365.365 0 0 0 .042-.137 2.657 2.657 0 0 0-.141-1.155 1.955 1.955 0 0 0-.427-.692Zm-2.605 1.37c.052-.353.173-.626.361-.819.189-.193.451-.288.785-.288.17 0 .319.028.445.087a.876.876 0 0 1 .317.24c.083.1.145.218.185.352.04.134.06.276.06.428h-2.153ZM130.527 15.9c-.11-.1-.235-.182-.373-.246a4.557 4.557 0 0 0-.428-.174c-.145-.05-.288-.097-.427-.139a2.63 2.63 0 0 1-.374-.145.893.893 0 0 1-.265-.187.365.365 0 0 1-.099-.262.46.46 0 0 1 .194-.384c.132-.098.31-.147.535-.147.145 0 .271.016.378.048.107.031.203.067.286.106.083.04.157.075.219.107a.422.422 0 0 0 .18.047c.052 0 .096-.01.13-.03a.323.323 0 0 0 .097-.108l.26-.42a2.021 2.021 0 0 0-.672-.435 2.333 2.333 0 0 0-.896-.168c-.294 0-.554.041-.778.121a1.697 1.697 0 0 0-.561.323 1.333 1.333 0 0 0-.343.471c-.076.18-.115.37-.115.568 0 .215.032.398.1.55.066.152.154.279.263.384.111.104.237.189.377.257.141.068.285.127.432.178.147.05.292.096.432.14.14.041.265.09.376.144.11.054.198.117.264.189.068.073.1.166.1.28 0 .075-.015.148-.044.22a.479.479 0 0 1-.14.187.722.722 0 0 1-.24.13c-.098.033-.215.05-.351.05a1.28 1.28 0 0 1-.43-.061 1.992 1.992 0 0 1-.294-.133 4.169 4.169 0 0 1-.22-.134.378.378 0 0 0-.379-.018.354.354 0 0 0-.121.122l-.264.447c.093.085.2.163.322.236.122.072.256.136.4.19a2.643 2.643 0 0 0 .931.171c.306 0 .578-.04.813-.122.238-.08.437-.192.598-.336.16-.144.282-.314.367-.512.083-.197.125-.412.125-.645 0-.196-.033-.364-.099-.503a1.176 1.176 0 0 0-.266-.357ZM135.258 13.94a1.816 1.816 0 0 0-.652-.43 2.289 2.289 0 0 0-.828-.147c-.357 0-.676.064-.96.19a2.15 2.15 0 0 0-.719.514c-.197.217-.347.47-.453.763a2.74 2.74 0 0 0-.158.935c0 .425.061.802.181 1.125.121.323.286.596.497.814.21.22.457.385.743.497.284.113.591.168.923.168.168 0 .34-.012.519-.038.177-.024.351-.069.523-.13a2.44 2.44 0 0 0 .494-.245c.16-.104.301-.231.428-.381l-.334-.427a.245.245 0 0 0-.21-.11.444.444 0 0 0-.22.067c-.076.044-.164.093-.263.147a2.335 2.335 0 0 1-.354.146 1.52 1.52 0 0 1-.48.068c-.378 0-.682-.117-.909-.352-.23-.232-.361-.6-.396-1.098h2.944a.34.34 0 0 0 .129-.021.16.16 0 0 0 .081-.071.332.332 0 0 0 .042-.137 2.68 2.68 0 0 0-.14-1.155 1.986 1.986 0 0 0-.428-.692Zm-2.606 1.37c.052-.353.174-.626.363-.819.188-.193.45-.288.785-.288.17 0 .317.028.444.087a.884.884 0 0 1 .317.24c.083.1.144.218.185.352.04.134.062.276.062.428h-2.156ZM140.04 13.878a1.587 1.587 0 0 0-.555-.388 1.866 1.866 0 0 0-.745-.14c-.773 0-1.434.256-1.982.766l.209.375a.49.49 0 0 0 .134.152.332.332 0 0 0 .2.061.517.517 0 0 0 .256-.066c.077-.044.161-.093.251-.15.094-.054.201-.104.324-.148.124-.044.279-.066.464-.066.257 0 .453.079.588.236.134.157.201.4.201.728v.286c-.541 0-.995.047-1.359.142-.366.095-.658.214-.879.36a1.347 1.347 0 0 0-.47.484c-.095.178-.142.36-.142.543 0 .219.034.41.102.576.068.164.163.302.286.412.123.112.268.195.438.25.17.056.356.083.558.083a1.941 1.941 0 0 0 1.218-.38c.116-.085.235-.182.355-.292l.102.345c.031.102.077.169.14.202.061.033.147.05.255.05h.515V15.23c0-.276-.039-.528-.119-.758a1.681 1.681 0 0 0-.345-.595Zm-.656 3.174a2.216 2.216 0 0 1-.249.226 1.512 1.512 0 0 1-.255.161 1.273 1.273 0 0 1-.605.13.757.757 0 0 1-.468-.134c-.118-.088-.178-.236-.178-.442 0-.106.029-.203.087-.292a.687.687 0 0 1 .289-.233c.135-.068.317-.122.541-.164.224-.043.504-.065.838-.065v.813ZM143.313 13.61a2.28 2.28 0 0 0-.599.71l-.07-.587c-.015-.108-.046-.183-.092-.227-.047-.044-.129-.066-.246-.066h-.673v4.858h1.146v-3.026c.118-.26.262-.456.431-.59a.969.969 0 0 1 .613-.201c.133 0 .24.01.32.033a.793.793 0 0 0 .192.033.199.199 0 0 0 .125-.035c.031-.024.051-.064.06-.121l.148-.876a.98.98 0 0 0-.584-.165 1.24 1.24 0 0 0-.771.26ZM148.582 17.038a.294.294 0 0 0-.191.068 6.445 6.445 0 0 1-.203.152 1.182 1.182 0 0 1-.729.22c-.183 0-.346-.035-.492-.107a.972.972 0 0 1-.37-.312 1.458 1.458 0 0 1-.236-.508 2.73 2.73 0 0 1-.081-.692c0-.25.026-.474.074-.67a1.45 1.45 0 0 1 .225-.504 1.01 1.01 0 0 1 .378-.32c.152-.074.329-.11.529-.11a1.225 1.225 0 0 1 .674.176c.077.045.145.088.199.124a.315.315 0 0 0 .172.054c.063 0 .11-.012.141-.039a.614.614 0 0 0 .1-.103l.302-.426a2.294 2.294 0 0 0-.721-.502 2.34 2.34 0 0 0-.936-.176c-.375 0-.706.063-.993.19-.287.128-.53.3-.725.523a2.28 2.28 0 0 0-.443.79c-.1.306-.151.636-.151.993 0 .397.057.753.17 1.063.114.31.266.574.459.788.194.215.421.378.68.49.26.113.537.169.832.169.166 0 .335-.014.505-.038a2.28 2.28 0 0 0 .957-.375c.147-.104.286-.231.413-.382l-.33-.427a.231.231 0 0 0-.209-.109ZM153.897 14.46a1.674 1.674 0 0 0-.308-.582 1.35 1.35 0 0 0-.503-.379 1.676 1.676 0 0 0-.691-.135c-.301 0-.562.055-.785.166-.223.11-.427.255-.612.436v-2.704h-1.146v7.036h1.146v-3.514c.155-.158.318-.282.492-.374.173-.091.359-.137.556-.137.27 0 .472.081.606.244.136.162.203.393.203.689v3.092h1.146v-3.092c0-.271-.035-.52-.104-.746ZM79.696 14.011a2.082 2.082 0 0 0-.739-.496 2.574 2.574 0 0 0-.966-.175c-.355 0-.677.059-.968.175a2.084 2.084 0 0 0-.743.496 2.186 2.186 0 0 0-.478.784c-.113.31-.17.654-.17 1.036 0 .385.057.73.17 1.04.112.309.271.571.477.79.206.217.453.383.744.5.29.117.613.174.968.174s.677-.057.966-.174c.289-.117.535-.283.74-.5.203-.219.36-.481.472-.79.11-.31.166-.655.166-1.04 0-.382-.055-.726-.166-1.036a2.192 2.192 0 0 0-.473-.784Zm-.825 3.02c-.19.272-.483.407-.878.407-.402 0-.7-.136-.89-.41-.191-.272-.287-.668-.287-1.188 0-.52.096-.918.287-1.193.19-.276.488-.413.89-.413.395 0 .687.136.878.41.19.274.285.673.285 1.196 0 .524-.095.92-.285 1.19ZM82.907 13.586a2.31 2.31 0 0 0-.597.71l-.07-.587c-.015-.107-.046-.183-.093-.227-.046-.044-.128-.066-.245-.066h-.671v4.85h1.144v-3.02c.118-.26.26-.455.43-.59.17-.133.373-.2.612-.2.133 0 .239.011.32.033.08.022.143.032.19.032a.202.202 0 0 0 .124-.034c.031-.024.052-.065.061-.12l.15-.876a.987.987 0 0 0-.586-.165c-.283 0-.54.087-.769.26Z" clip-rule="evenodd"/></svg>